<?xml version="1.0" standalone="no"?>
<!DOCTYPE svg PUBLIC "-//W3C//DTD SVG 20010904//EN"
 "http://www.w3.org/TR/2001/REC-SVG-20010904/DTD/svg10.dtd">
<svg version="1.0" xmlns="http://www.w3.org/2000/svg"
 width="1081.000000pt" height="1080.000000pt" viewBox="0 0 1081.000000 1080.000000"
 preserveAspectRatio="xMidYMid meet">

<g transform="translate(0.000000,1080.000000) scale(0.100000,-0.100000)"
fill="#000000" stroke="none">
<path d="M0 5400 l0 -5400 5405 0 5405 0 0 5400 0 5400 -5405 0 -5405 0 0
-5400z m6640 3116 c322 -37 571 -87 800 -161 751 -242 1236 -725 1441 -1436
75 -260 108 -502 116 -834 16 -730 -139 -1294 -485 -1755 -71 -96 -235 -265
-332 -343 -300 -242 -671 -407 -1120 -497 -139 -28 -449 -67 -575 -72 l-60 -3
-1 -40 c-1 -22 -2 -46 -3 -52 -1 -9 -24 -13 -81 -13 l-80 0 -36 50 -36 50
-614 0 -614 0 0 859 0 858 -1032 1444 -1033 1444 -3 -2352 -2 -2353 -105 0
-105 0 0 2565 0 2565 88 0 87 0 962 -1347 c529 -742 1001 -1404 1050 -1473
l88 -125 3 1523 2 1524 768 -5 c636 -3 792 -7 912 -21z m-3750 -5901 l115
-164 3 165 c1 98 6 164 12 164 6 0 10 -71 10 -185 0 -102 -4 -185 -8 -185 -5
0 -62 75 -128 166 l-119 166 -5 -168 -6 -169 -2 188 c-1 103 1 187 6 187 4 -1
59 -75 122 -165z m370 -20 c0 -117 -4 -185 -10 -185 -6 0 -10 68 -10 185 0
117 4 185 10 185 6 0 10 -68 10 -185z m430 160 c61 -36 75 -66 75 -158 0 -71
-3 -87 -24 -116 -35 -49 -91 -71 -183 -71 l-78 0 0 186 0 186 88 -4 c64 -3 98
-9 122 -23z m310 -60 l0 -85 115 0 115 0 0 85 c0 50 4 85 10 85 6 0 10 -68 10
-185 0 -117 -4 -185 -10 -185 -6 0 -10 37 -10 90 l0 90 -115 0 -115 0 0 -90
c0 -53 -4 -90 -10 -90 -6 0 -10 68 -10 185 0 117 4 185 10 185 6 0 10 -35 10
-85z m480 -100 c0 -117 -4 -185 -10 -185 -6 0 -10 68 -10 185 0 117 4 185 10
185 6 0 10 -68 10 -185z m670 160 c57 -34 74 -67 78 -148 2 -60 -1 -79 -20
-112 -34 -59 -92 -85 -190 -85 l-78 0 0 186 0 186 88 -4 c64 -3 98 -9 122 -23z
m485 15 c-3 -5 -44 -10 -91 -10 l-84 0 0 -75 0 -75 85 0 c50 0 85 -4 85 -10 0
-6 -35 -10 -85 -10 l-85 0 0 -80 0 -80 90 0 c53 0 90 -4 90 -10 0 -6 -40 -10
-100 -10 l-100 0 0 185 0 185 101 0 c64 0 98 -4 94 -10z m204 -27 c6 -21 25
-99 42 -173 18 -74 35 -128 37 -120 3 8 27 85 52 170 25 85 50 155 55 155 5 0
26 -70 47 -155 21 -85 41 -162 44 -170 3 -8 27 60 53 153 46 159 56 186 65
176 9 -9 -102 -364 -114 -364 -10 0 -71 209 -92 315 -2 8 -26 -60 -53 -152
-27 -93 -54 -168 -61 -168 -7 0 -29 70 -53 168 -23 92 -44 175 -47 185 -3 9
-1 17 5 17 6 0 15 -17 20 -37z m760 -65 c86 -221 100 -262 96 -267 -8 -7 -12
0 -33 54 l-20 50 -93 3 -94 3 -21 -53 c-12 -29 -27 -54 -33 -56 -8 -3 -7 9 4
34 16 38 109 267 126 312 5 12 13 22 18 22 5 0 28 -46 50 -102z m427 -65 l119
-168 5 170 6 170 2 -187 c1 -104 -1 -188 -5 -188 -5 1 -61 76 -125 167 l-118
166 0 -166 c0 -105 -4 -167 -10 -167 -6 0 -10 68 -10 185 0 102 4 185 8 185 5
0 62 -75 128 -167z m583 153 c32 -17 57 -44 48 -52 -3 -4 -20 5 -37 20 -40 33
-109 36 -158 6 -83 -51 -97 -218 -23 -284 27 -24 110 -33 152 -16 32 14 59 59
59 100 0 17 -6 20 -50 20 -27 0 -50 5 -50 10 0 6 27 10 60 10 l60 0 0 -85 c0
-50 -4 -85 -10 -85 -5 0 -10 11 -10 25 l0 24 -36 -24 c-75 -51 -179 -25 -222
56 -20 37 -23 54 -19 111 5 79 32 130 85 158 44 23 112 26 151 6z m416 -28
c10 -24 39 -99 65 -168 26 -69 51 -133 55 -142 4 -10 3 -18 -2 -18 -5 0 -20
25 -32 55 l-23 55 -91 0 -92 0 -21 -52 c-12 -29 -27 -54 -33 -56 -8 -3 -7 8 4
34 19 46 114 279 126 312 13 33 25 27 44 -20z m445 -120 l115 -162 3 162 c1
97 6 162 12 162 6 0 10 -71 10 -185 0 -102 -3 -185 -7 -185 -5 0 -60 73 -123
162 l-115 163 -3 -163 c-1 -97 -6 -162 -12 -162 -6 0 -10 71 -10 185 0 102 4
185 8 185 4 0 59 -73 122 -162z"/>
<path d="M5187 8343 c-4 -3 -7 -716 -7 -1584 l0 -1577 513 -721 c281 -396 515
-720 520 -721 4 0 7 407 7 905 l0 905 103 0 102 0 -2 -955 c-2 -525 0 -962 4
-971 5 -14 18 -16 92 -10 383 30 709 100 1004 217 462 184 819 520 1016 957
166 366 242 806 228 1307 -9 301 -32 478 -93 714 -229 884 -859 1369 -1947
1501 -89 10 -193 21 -232 22 l-70 3 -3 -1047 -2 -1048 -100 0 -100 0 -2 1053
-3 1052 -511 3 c-281 1 -514 -1 -517 -5z"/>
<path d="M5185 4789 c-3 -8 -4 -277 -3 -599 l3 -585 429 -3 c375 -2 428 0 423
13 -5 12 -772 1090 -829 1164 -13 17 -19 20 -23 10z"/>
<path d="M3500 2595 l0 -165 68 0 c80 0 127 20 160 70 21 30 23 45 20 107 -3
60 -8 76 -28 99 -36 38 -80 54 -155 54 l-65 0 0 -165z"/>
<path d="M4960 2595 l0 -165 68 0 c123 0 182 53 182 165 0 112 -59 165 -182
165 l-68 0 0 -165z"/>
<path d="M6507 2647 c-20 -51 -37 -96 -37 -100 0 -4 36 -7 81 -7 73 0 80 2 74
18 -4 9 -21 54 -37 100 -17 45 -34 82 -38 82 -3 0 -23 -42 -43 -93z"/>
<path d="M7957 2647 c-20 -51 -37 -96 -37 -100 0 -4 36 -7 81 -7 73 0 80 2 75
18 -34 92 -72 182 -77 182 -3 0 -22 -42 -42 -93z"/>
</g>
</svg>
