<?xml version="1.0" standalone="no"?>
<!DOCTYPE svg PUBLIC "-//W3C//DTD SVG 20010904//EN"
 "http://www.w3.org/TR/2001/REC-SVG-20010904/DTD/svg10.dtd">
<svg version="1.0" xmlns="http://www.w3.org/2000/svg"
 width="499.000000pt" height="499.000000pt" viewBox="0 0 499.000000 499.000000"
 preserveAspectRatio="xMidYMid meet">

<g transform="translate(0.000000,499.000000) scale(0.100000,-0.100000)"
fill="#000000" stroke="none">
<path d="M2220 4840 c-41 -5 -113 -20 -160 -35 -84 -27 -230 -99 -230 -114 0
-4 -16 -16 -36 -27 -30 -16 -104 -101 -104 -120 0 -14 -38 -53 -45 -46 -5 4
-5 2 -2 -4 4 -6 -10 -30 -30 -53 -19 -23 -44 -52 -54 -64 -10 -12 -42 -51 -71
-87 -53 -64 -164 -210 -182 -239 -5 -8 11 2 36 22 50 41 166 167 270 292 67
81 134 144 192 179 18 12 -5 -17 -56 -70 -48 -49 -110 -118 -139 -154 -105
-133 -205 -228 -378 -360 -137 -104 -149 -116 -133 -132 9 -9 19 -8 39 2 59
27 93 40 93 35 0 -2 -36 -34 -81 -71 -66 -55 -79 -71 -74 -88 4 -12 10 -34 13
-49 l7 -28 58 35 c31 19 57 32 57 29 0 -2 -29 -32 -65 -66 -36 -34 -65 -69
-65 -78 0 -9 9 -24 20 -34 11 -10 17 -22 13 -28 -4 -7 0 -8 13 -2 10 4 27 8
36 9 9 0 15 3 13 6 -2 3 6 12 18 20 20 12 21 12 8 -3 -18 -23 -5 -21 32 4 18
11 3 -6 -33 -40 -36 -33 -65 -65 -65 -70 0 -6 -9 -17 -20 -25 -14 -11 -16 -15
-6 -16 11 0 11 -4 -2 -18 -24 -26 -22 -52 5 -52 21 0 21 0 3 -20 -10 -12 -34
-30 -52 -41 -23 -14 -33 -28 -33 -45 0 -27 23 -42 43 -26 13 10 117 26 117 17
0 -3 -32 -19 -71 -37 l-71 -32 6 -40 c4 -23 23 -77 41 -121 26 -60 35 -95 35
-135 0 -39 -3 -51 -10 -40 -8 13 -10 12 -10 -3 0 -34 -43 -107 -99 -169 -81
-91 -111 -134 -133 -192 -25 -65 -27 -151 -5 -193 17 -32 17 -33 -3 -53 -21
-21 -44 -69 -36 -77 2 -2 13 -5 23 -6 14 -1 19 -6 15 -19 -2 -10 -9 -18 -14
-18 -5 0 4 -19 20 -42 17 -24 37 -66 47 -95 24 -75 53 -112 115 -146 67 -36
82 -53 76 -93 -4 -28 -2 -31 17 -27 18 4 19 3 7 -6 -8 -6 -23 -8 -32 -5 -26 8
-125 -96 -138 -145 -6 -22 -15 -43 -21 -47 -6 -3 -8 -21 -4 -44 4 -23 2 -47
-5 -61 -16 -29 -14 -110 2 -120 17 -11 25 -3 33 30 7 32 28 46 43 28 5 -7 15
-29 23 -50 10 -30 11 -44 1 -69 -9 -24 -9 -35 0 -46 10 -12 14 -11 25 4 7 10
16 15 20 11 3 -4 -2 -16 -12 -27 -14 -15 -15 -20 -4 -20 8 0 -3 -15 -23 -33
-21 -19 -35 -37 -30 -41 4 -4 2 -6 -4 -4 -16 5 -157 -149 -149 -162 3 -4 -2
-13 -10 -20 -8 -7 -15 -17 -15 -22 0 -6 -9 -22 -19 -36 -44 -62 -113 -208
-136 -288 -27 -95 -72 -326 -80 -417 l-6 -57 865 0 866 0 -6 33 c-22 131 -62
271 -107 373 -19 43 -62 163 -96 265 -34 102 -77 215 -95 250 -125 243 -156
299 -189 342 -44 57 -48 77 -9 47 54 -42 131 -90 144 -89 7 0 3 4 -9 9 -23 9
-32 30 -13 30 6 0 10 7 10 16 0 8 -4 12 -10 9 -23 -14 -7 8 27 38 34 30 150
87 177 87 7 0 23 15 36 32 59 80 104 118 195 164 52 26 95 51 95 55 0 4 8 9
18 13 21 7 49 25 76 50 27 23 116 64 139 63 21 0 67 -51 67 -74 0 -8 6 -27 14
-41 8 -15 22 -50 31 -79 9 -28 22 -57 30 -63 8 -6 11 -18 9 -25 -3 -7 4 -19
16 -25 11 -6 18 -15 16 -19 -3 -4 2 -17 10 -27 9 -10 12 -12 8 -4 -5 10 0 9
14 -4 23 -20 30 -32 12 -21 -5 3 -10 1 -10 -4 0 -6 4 -11 8 -11 4 0 21 -25 37
-55 26 -47 28 -58 18 -84 -10 -29 -10 -29 13 -21 13 5 35 17 48 25 l25 16 -25
-67 c-13 -37 -24 -73 -24 -81 0 -7 -20 -46 -44 -86 -24 -39 -56 -97 -71 -127
-25 -50 -83 -203 -90 -240 -2 -9 -19 -58 -39 -110 -70 -181 -103 -275 -116
-330 -7 -30 -16 -60 -21 -65 -4 -6 -10 -22 -12 -35 -2 -14 -7 -32 -10 -40 -3
-8 -10 -32 -16 -52 l-9 -38 818 0 819 0 -13 48 c-15 55 -34 136 -40 174 -5 29
-7 37 -51 178 -32 101 -87 253 -94 260 -4 3 -17 28 -29 55 -45 95 -127 205
-153 205 -7 0 -10 3 -7 6 10 9 -135 142 -172 157 -8 4 1 4 20 1 19 -4 51 -14
70 -24 26 -13 39 -15 52 -7 13 9 25 4 60 -25 23 -19 54 -41 67 -47 30 -16 81
-7 111 21 21 19 21 22 6 33 -9 7 -36 15 -61 18 -89 13 -175 78 -196 149 -16
56 -11 113 12 142 11 15 48 45 80 67 89 60 149 151 149 225 0 40 -34 115 -84
183 -31 42 -34 50 -21 61 13 11 12 15 -9 34 -63 57 -84 76 -118 114 -44 48
-49 61 -12 37 40 -26 39 -11 -5 53 -47 69 -76 137 -86 202 -3 25 -9 54 -11 65
-8 33 28 -36 42 -80 l12 -40 17 40 c38 94 82 174 135 250 84 120 133 224 138
294 7 91 -13 186 -58 279 -46 95 -44 91 -27 88 50 -8 100 -70 120 -151 10 -40
7 31 -3 85 -13 68 -102 251 -178 365 -61 92 -69 113 -31 79 l22 -19 -18 28
c-15 23 -16 30 -5 40 9 8 11 8 7 1 -4 -7 0 -15 9 -18 15 -6 15 -4 3 12 -8 11
-37 53 -65 93 -68 97 -61 90 -224 224 -25 20 -66 58 -91 85 -26 27 -49 47 -51
45 -3 -3 -5 1 -5 9 0 12 4 12 24 -1 13 -8 23 -11 23 -7 0 5 4 4 8 -1 13 -20
67 -52 85 -52 20 0 -126 146 -200 200 -24 17 -43 31 -43 33 0 1 7 5 16 8 10 4
13 2 8 -6 -5 -8 -2 -9 9 -5 14 5 91 -42 117 -72 3 -3 27 -26 54 -51 l48 -45
-17 35 c-22 42 -112 138 -164 175 -21 14 -74 42 -117 61 l-79 34 53 -4 c41 -4
70 -15 125 -50 40 -24 82 -54 94 -65 12 -12 24 -17 27 -13 3 5 -17 31 -44 59
-40 42 -64 56 -134 81 -47 17 -108 34 -136 38 -63 8 -72 20 -20 28 79 12 193
-33 314 -124 100 -75 81 -40 -43 80 -68 66 -128 117 -134 113 -6 -3 -7 -1 -3
6 4 6 0 14 -11 18 -10 4 -42 24 -71 44 -30 21 -85 50 -124 65 -61 23 -80 26
-143 21 -77 -6 -112 5 -184 58 -19 14 -41 23 -48 20 -8 -2 -12 -1 -8 4 8 13
-61 34 -86 26 -13 -5 -19 -3 -15 3 7 12 -28 21 -64 17 -14 -1 -32 1 -40 5 -23
12 -226 18 -310 10z m215 -14 c11 -2 -15 -4 -58 -5 -43 0 -76 2 -74 7 5 6 86
6 132 -2z m94 -72 c64 -16 147 -51 139 -59 -2 -3 -33 7 -68 22 -56 22 -81 26
-175 27 -60 1 -139 -3 -175 -8 -45 -5 -62 -5 -55 2 30 31 234 41 334 16z m306
-55 c29 -32 13 -23 -35 21 -9 8 -25 21 -36 28 -10 7 -6 6 11 -2 17 -8 44 -29
60 -47z m245 -28 c21 -6 18 -8 -24 -14 -67 -9 -96 -9 -96 2 0 18 73 25 120 12z
m43 -48 c-7 -2 -19 -2 -25 0 -7 3 -2 5 12 5 14 0 19 -2 13 -5z m2 -63 c-16 -4
-41 -8 -55 -9 -20 0 -22 1 -10 9 8 5 33 9 55 9 39 -1 39 -2 10 -9z m-461 -33
c15 -14 11 -15 -41 -10 -61 7 -69 -9 -11 -22 31 -7 28 -8 -36 -21 -102 -20
-171 -45 -155 -55 11 -7 11 -9 -2 -9 -9 0 -53 -22 -98 -50 -45 -27 -88 -50
-94 -51 -7 0 -47 -43 -91 -95 -43 -52 -81 -92 -84 -89 -7 7 33 79 70 128 17
20 25 37 20 37 -6 0 -43 -40 -83 -90 -39 -49 -73 -90 -76 -90 -7 0 20 45 73
121 101 144 240 253 384 301 69 23 199 20 224 -5z m-127 -83 c-3 -3 -12 -4
-19 -1 -8 3 -5 6 6 6 11 1 17 -2 13 -5z m-22 -444 c116 -17 116 -17 163 3 32
14 59 17 100 14 86 -6 182 -35 222 -64 88 -66 232 -247 286 -359 39 -81 74
-208 74 -267 l0 -40 -50 55 c-69 77 -122 93 -268 83 -58 -4 -130 -13 -160 -21
-29 -8 -62 -14 -72 -14 -11 0 -27 -11 -36 -25 -16 -24 -16 -27 2 -40 24 -18
48 -18 163 0 119 20 253 21 310 4 40 -12 131 -83 120 -93 -2 -2 -29 2 -59 11
-30 8 -109 17 -175 20 -115 5 -125 4 -225 -27 -116 -36 -171 -61 -213 -96 -26
-22 -37 -24 -147 -24 l-118 0 -40 33 c-23 17 -42 39 -42 47 -1 8 -4 10 -6 4
-3 -6 -24 7 -49 31 -24 24 -50 45 -57 47 -7 3 11 8 41 12 29 4 59 13 66 19 13
14 5 46 -16 64 -18 14 -166 49 -244 57 -122 13 -135 17 -135 37 0 10 17 56 39
101 38 82 64 152 96 258 24 80 67 142 117 168 38 20 54 22 138 18 52 -2 131
-10 175 -16z m994 -45 c34 -20 116 -84 131 -102 55 -67 77 -105 51 -89 -5 3
-11 -1 -15 -9 -3 -9 0 -15 9 -15 8 0 15 -5 15 -11 0 -27 -23 -9 -230 181 -45
42 -28 40 34 -3 38 -27 24 -2 -21 37 -19 16 -39 38 -45 49 -9 18 -6 17 22 -4
17 -13 39 -28 49 -34z m-2218 -396 c-12 -13 -21 -19 -21 -14 0 11 32 46 38 41
2 -3 -5 -15 -17 -27z m1842 -316 c-13 -2 -35 -2 -50 0 -16 2 -5 4 22 4 28 0
40 -2 28 -4z m110 0 c-7 -2 -21 -2 -30 0 -10 3 -4 5 12 5 17 0 24 -2 18 -5z
m-226 -9 c-3 -3 -12 -4 -19 -1 -8 3 -5 6 6 6 11 1 17 -2 13 -5z m506 -56 c-10
-56 -22 -67 -23 -21 0 35 5 44 27 52 1 1 0 -14 -4 -31z m-198 -7 c16 -10 29
-25 29 -34 -1 -9 2 -15 6 -12 13 8 33 -134 26 -188 -15 -110 -105 -235 -205
-284 -51 -25 -66 -28 -166 -28 -120 0 -143 7 -209 65 -40 35 -116 200 -124
267 -10 88 36 155 126 187 l39 14 -18 -38 c-25 -52 -24 -59 3 -24 31 40 48 57
48 48 0 -4 -7 -15 -14 -23 -16 -17 -76 -153 -76 -170 0 -6 7 -11 15 -11 8 0
12 6 9 14 -3 8 4 36 17 63 l22 48 7 -40 c5 -27 18 -48 41 -67 31 -26 39 -28
106 -26 40 2 73 7 73 11 0 5 6 5 13 0 20 -12 49 -14 42 -2 -4 6 -1 9 7 7 42
-9 132 62 114 91 -3 5 4 11 17 15 17 5 19 8 8 15 -11 7 -10 12 8 22 28 18 27
32 -1 24 -22 -6 -22 -6 -4 9 24 20 15 31 -12 17 -32 -17 -37 -13 -16 10 19 22
19 22 -5 14 -16 -5 -21 -4 -17 4 9 14 -4 14 -41 1 l-28 -10 25 20 c29 24 86
20 135 -9z m-161 -83 c60 -50 42 -88 -61 -126 l-55 -21 26 28 c31 32 43 87 28
129 -9 26 -8 29 8 25 9 -3 34 -18 54 -35z m-1191 -15 c-4 -40 0 -55 21 -85
l25 -38 -57 29 c-71 36 -90 56 -75 79 10 17 70 62 83 62 4 0 5 -21 3 -47z
m189 22 c0 -5 -5 -11 -11 -13 -6 -2 -11 4 -11 13 0 9 5 15 11 13 6 -2 11 -8
11 -13z m868 1 c0 -16 -18 -31 -27 -22 -8 8 5 36 17 36 5 0 10 -6 10 -14z
m-760 -44 c0 -21 30 -73 38 -68 15 9 40 -20 62 -71 5 -13 12 -23 15 -23 4 0 3
6 -1 13 -5 9 -4 9 5 1 10 -9 4 -30 -29 -95 -23 -46 -53 -96 -68 -111 -43 -47
-123 -71 -239 -73 -63 -1 -100 2 -96 7 3 6 -3 8 -13 6 -10 -2 -26 4 -35 12 -9
8 -35 28 -58 44 -22 16 -38 33 -36 37 3 4 -4 28 -16 54 -15 34 -19 57 -14 85
8 50 25 63 67 55 18 -4 45 -9 61 -12 20 -4 27 -1 27 11 0 21 48 25 151 13 51
-6 56 -5 88 25 18 17 38 44 43 61 10 26 12 27 21 12 18 -32 26 -84 13 -89 -6
-2 -1 -5 12 -5 29 -1 28 14 -3 91 -14 34 -25 64 -25 67 0 11 29 -35 30 -47z
m318 -84 c5 -7 20 -50 32 -95 22 -81 70 -174 113 -221 32 -35 110 -72 186 -88
111 -23 146 -19 246 30 100 48 144 81 186 140 36 48 36 39 3 -66 -50 -160
-198 -429 -226 -412 -6 4 -8 3 -5 -3 7 -11 -28 -45 -37 -36 -3 4 -6 -1 -6 -10
0 -9 -5 -19 -12 -23 -7 -5 -8 -2 -3 7 8 14 -22 -10 -79 -63 -16 -15 -33 -25
-38 -22 -4 3 -8 -1 -8 -8 0 -7 -15 -23 -33 -36 -17 -12 -54 -40 -82 -62 -27
-23 -78 -55 -113 -72 -60 -30 -66 -31 -156 -25 -126 7 -170 28 -276 130 -47
45 -111 105 -142 132 -56 49 -80 87 -141 225 -11 25 -24 54 -29 66 -5 12 -8
32 -6 45 3 22 11 25 102 41 54 9 113 22 130 29 82 31 146 63 146 70 0 5 6 9
13 9 30 0 94 142 121 270 9 44 89 78 114 48z m-1600 -746 c-64 -55 -109 -85
-116 -77 -8 8 19 31 88 75 57 38 70 38 28 2z m2738 -100 c-5 -4 -56 92 -56
105 0 4 14 -16 30 -46 17 -30 28 -56 26 -59z m-47 42 c12 -20 20 -38 18 -40
-2 -2 -14 14 -26 36 -28 50 -21 53 8 4z m-2703 -756 c-9 -12 -16 -19 -16 -15
0 11 24 47 28 42 2 -2 -3 -14 -12 -27z m2708 -170 c9 -12 16 -37 16 -55 l0
-33 -52 23 c-60 26 -70 53 -28 74 35 18 47 16 64 -9z"/>
<path d="M2393 2593 c-15 -6 -17 -33 -3 -33 6 0 10 -7 10 -16 0 -12 -7 -15
-24 -12 -18 4 -26 0 -29 -14 -8 -31 32 -67 93 -83 69 -18 108 -18 140 0 14 8
40 14 58 15 17 0 32 5 32 10 0 17 -29 23 -54 12 -46 -21 -181 51 -188 100 -3
23 -15 30 -35 21z"/>
<path d="M2180 2341 c0 -11 9 -22 20 -26 10 -3 37 -27 60 -52 31 -36 38 -49
29 -59 -9 -10 -9 -14 0 -14 6 0 11 -6 11 -12 0 -22 44 -64 79 -76 41 -14 140
-15 198 -2 23 6 54 23 72 40 l30 31 -65 -5 c-81 -7 -157 9 -190 39 -32 29 -20
34 71 28 95 -7 235 20 303 58 29 16 57 27 62 24 9 -6 25 13 17 21 -3 3 -25 -3
-49 -14 -56 -26 -258 -35 -333 -15 -27 7 -88 13 -135 13 -69 0 -90 4 -110 20
-33 26 -70 26 -70 1z"/>
<path d="M3573 4293 c9 -2 14 -9 11 -15 -4 -7 -2 -8 5 -4 15 10 4 26 -17 25
-15 -1 -15 -2 1 -6z"/>
<path d="M3600 4261 c0 -5 5 -13 10 -16 6 -3 10 -2 10 4 0 5 -4 13 -10 16 -5
3 -10 2 -10 -4z"/>
</g>
</svg>
